<svg width="212" height="203" viewBox="0 0 212 203" fill="none" xmlns="http://www.w3.org/2000/svg">
<path d="M119.4 0H93.5999V39.1351C93.4912 46.208 87.7578 51.9067 80.7015 51.9067H42V77.8601H70.0132C76.8557 77.8601 83.4182 75.1256 88.2564 70.2587L111.843 46.5315C116.681 41.6646 119.4 35.063 119.4 28.1798V0Z" fill="url(#paint0_linear_2_202)"/>
<path d="M93.6002 129.767H119.4V90.6317C119.509 83.5588 125.242 77.8601 132.299 77.8601H171V51.9067H142.987C136.144 51.9067 129.582 54.6412 124.744 59.5081L101.157 83.2353C96.3186 88.1022 93.6002 94.7038 93.6002 101.587V129.767Z" fill="url(#paint1_linear_2_202)"/>
<path d="M24.3075 163.335L19.8275 171.335H15.3475L10.8675 163.335V175.815H5.1075V153.415H11.1875L17.5875 165.255L23.9875 153.415H30.0675V175.815H24.3075V163.335ZM48.32 159.495C48.32 158.215 47.68 157.575 46.4 157.575H40.96C39.68 157.575 39.04 158.215 39.04 159.495V169.735C39.04 171.015 39.68 171.655 40.96 171.655H46.4C47.68 171.655 48.32 171.015 48.32 169.735V159.495ZM54.08 169.735C54.08 171.975 53.568 173.607 52.544 174.631C51.5413 175.634 49.92 176.135 47.68 176.135H39.68C37.44 176.135 35.808 175.634 34.784 174.631C33.7813 173.607 33.28 171.975 33.28 169.735V159.495C33.28 157.255 33.7813 155.634 34.784 154.631C35.808 153.607 37.44 153.095 39.68 153.095H47.68C49.92 153.095 51.5413 153.607 52.544 154.631C53.568 155.634 54.08 157.255 54.08 159.495V169.735ZM76.495 163.335L72.015 171.335H67.535L63.055 163.335V175.815H57.295V153.415H63.375L69.775 165.255L76.175 153.415H82.255V175.815H76.495V163.335ZM85.1475 153.415H90.9075V157.895L88.6675 161.415H85.7875L87.0675 158.215H85.1475V153.415ZM93.123 171.175C98.9683 171.495 102.926 171.655 104.995 171.655C105.486 171.655 105.87 171.517 106.147 171.239C106.446 170.941 106.595 170.546 106.595 170.055V167.175H99.235C96.995 167.175 95.363 166.674 94.339 165.671C93.3363 164.647 92.835 163.015 92.835 160.775V159.815C92.835 157.575 93.3363 155.954 94.339 154.951C95.363 153.927 96.995 153.415 99.235 153.415H110.467V157.895H100.515C99.235 157.895 98.595 158.535 98.595 159.815V160.455C98.595 161.735 99.235 162.375 100.515 162.375H106.275C108.366 162.375 109.902 162.866 110.883 163.847C111.864 164.829 112.355 166.365 112.355 168.455V170.055C112.355 172.146 111.864 173.682 110.883 174.663C109.902 175.645 108.366 176.135 106.275 176.135C105.187 176.135 104.035 176.114 102.819 176.071L99.875 175.943C97.699 175.837 95.4483 175.687 93.123 175.495V171.175ZM142.106 175.495C137.349 175.922 133.402 176.135 130.266 176.135C128.176 176.135 126.64 175.645 125.658 174.663C124.677 173.682 124.186 172.146 124.186 170.055V159.815C124.186 157.575 124.688 155.954 125.69 154.951C126.714 153.927 128.346 153.415 130.586 153.415H142.106V157.895H131.866C130.586 157.895 129.946 158.535 129.946 159.815V170.055C129.946 170.546 130.085 170.941 130.362 171.239C130.661 171.517 131.034 171.655 131.482 171.655C131.93 171.655 132.421 171.655 132.954 171.655C133.488 171.634 134.042 171.613 134.618 171.591C135.194 171.57 135.77 171.549 136.346 171.527C136.944 171.506 137.701 171.463 138.618 171.399C139.557 171.335 140.72 171.261 142.106 171.175V175.495ZM148.67 175.815H142.43L150.91 153.415H157.31L165.79 175.815H159.55L158.11 171.815H150.11L148.67 175.815ZM151.55 167.655H156.67L154.11 160.135L151.55 167.655ZM167.389 153.415H180.829C183.069 153.415 184.69 153.927 185.693 154.951C186.717 155.954 187.229 157.575 187.229 159.815V162.695C187.229 164.466 186.93 165.842 186.333 166.823C185.757 167.805 184.829 168.455 183.549 168.775L187.549 175.815H181.309L177.629 169.095H173.149V175.815H167.389V153.415ZM181.469 159.815C181.469 158.535 180.829 157.895 179.549 157.895H173.149V164.615H179.549C180.829 164.615 181.469 163.975 181.469 162.695V159.815ZM208.18 175.815H190.42V153.415H208.18V157.895H196.18V162.215H205.62V166.695H196.18V171.335H208.18V175.815Z" fill="#E5E7EB"/>
<defs>
<linearGradient id="paint0_linear_2_202" x1="106.5" y1="-3.23475" x2="106.5" y2="109.631" gradientUnits="userSpaceOnUse">
<stop stop-color="#93C5FD"/>
<stop offset="1" stop-color="#E5E7EB"/>
</linearGradient>
<linearGradient id="paint1_linear_2_202" x1="106.5" y1="-3.23479" x2="106.5" y2="109.631" gradientUnits="userSpaceOnUse">
<stop stop-color="#93C5FD"/>
<stop offset="1" stop-color="#E5E7EB"/>
</linearGradient>
</defs>
</svg>
